<?xml version="1.0" encoding="UTF-8"?>
<svg version="1.1" xmlns="http://www.w3.org/2000/svg" width="3496" height="819">
<path d="M0 0 C1.88233097 -0.00782324 1.88233097 -0.00782324 3.80268884 -0.01580453 C5.2083277 -0.01147961 6.613966 -0.00696626 8.01960373 -0.002285 C9.50295469 -0.00458742 10.98630452 -0.00776247 12.46965194 -0.01173949 C16.56146176 -0.02012815 20.6531789 -0.01594366 24.74498916 -0.00976706 C29.15305713 -0.00525933 33.56110868 -0.01221849 37.96917343 -0.0177269 C46.61641481 -0.02664499 55.26362156 -0.0246869 63.91086432 -0.01890162 C70.9477215 -0.01438877 77.98456895 -0.01377061 85.02142715 -0.01594925 C86.0222604 -0.01625572 87.02309365 -0.01656218 88.05425517 -0.01687793 C90.08755702 -0.0175174 92.12085887 -0.01816582 94.15416071 -0.01882312 C113.25202395 -0.02453498 132.34986803 -0.01795817 151.44772813 -0.00722238 C167.8005334 0.00168659 184.15331022 0.00018473 200.50611496 -0.00905991 C219.50364231 -0.01979469 238.50115277 -0.02395681 257.49868274 -0.01783538 C259.53070879 -0.01719832 261.56273484 -0.01656958 263.59476089 -0.01594925 C264.59444728 -0.0156407 265.59413366 -0.01533215 266.62411357 -0.01501425 C273.63448019 -0.01329485 280.64483602 -0.01618661 287.65520096 -0.02090836 C296.2261082 -0.0265541 304.79697887 -0.02492506 313.36788198 -0.01434687 C317.73306614 -0.00913515 322.09818964 -0.00695492 326.46337318 -0.01364517 C348.09780618 -0.04405948 369.59767125 0.15594843 390.95875168 4.06418228 C391.90758224 4.23449966 392.85641281 4.40481705 393.83399582 4.58029556 C402.47567721 6.19783545 410.82824787 8.41613896 419.14625168 11.25168228 C419.80641281 11.47581802 420.46657394 11.69995377 421.14673996 11.9308815 C437.20392377 17.47634322 452.16389722 24.58990937 466.14625168 34.25168228 C467.12336105 34.92199478 468.10047043 35.59230728 469.10718918 36.28293228 C474.68245129 40.21841142 479.80440724 44.47603238 484.81422043 49.10715103 C486.88174688 51.0084442 488.99577292 52.82096965 491.14625168 54.62668228 C528.95430932 87.82215689 548.11052635 140.93671294 551.83375168 190.00168228 C551.95724082 192.41743866 552.06189175 194.83424317 552.14625168 197.25168228 C552.18750168 198.40281509 552.22875168 199.55394791 552.27125168 200.73996353 C553.07377444 246.63423375 539.20475744 296.21913514 510.14625168 332.25168228 C509.14465012 333.53945572 509.14465012 333.53945572 508.12281418 334.85324478 C476.61517227 375.07841607 431.07566813 399.30333325 380.64625168 406.37668228 C373.84505134 407.17249628 367.04744125 407.60674598 360.20875168 407.93918228 C359.23035324 407.98768326 358.2519548 408.03618423 357.24390793 408.08615494 C356.33640793 408.12402115 355.42890793 408.16188736 354.49390793 408.20090103 C353.67930099 408.23530289 352.86469406 408.26970474 352.02540207 408.30514908 C350.14625168 408.25168228 350.14625168 408.25168228 349.14625168 407.25168228 C349.05107365 404.48229262 349.02070903 401.73791069 349.03272629 398.96823502 C349.03250725 397.66591431 349.03250725 397.66591431 349.03228378 396.33728409 C349.03298322 393.45325642 349.04077705 390.56929249 349.04859543 387.68527603 C349.0504595 385.69130361 349.05188345 383.69733074 349.05288315 381.7033577 C349.0567092 376.44422526 349.06654023 371.18512025 349.07758713 365.92599869 C349.08779938 360.56386054 349.09238037 355.20171797 349.09742355 349.83957291 C349.10816242 339.31026395 349.12523988 328.78097539 349.14625168 318.25168228 C349.86168137 318.1699678 350.57711105 318.08825333 351.31422043 318.00406265 C354.59206268 317.62726186 357.86914589 317.24420831 361.14625168 316.86105728 C362.27160324 316.73263443 363.3969548 316.60421158 364.55640793 316.47189713 C392.6395091 313.16679531 418.66337663 301.1481541 437.14625168 279.25168228 C440.50542645 274.80784246 443.34267282 270.05743069 446.14625168 265.25168228 C446.77402512 264.21269791 447.40179855 263.17371353 448.04859543 262.10324478 C463.85137905 234.64720496 465.75750865 200.66820815 458.01905441 170.34640884 C453.18162693 153.05138509 444.28478174 137.03402785 431.79859543 124.14230728 C430.14625168 122.25168228 430.14625168 122.25168228 430.14625168 120.25168228 C429.57648605 119.99644791 429.00672043 119.74121353 428.41968918 119.47824478 C425.89094357 118.11393873 423.95287896 116.49558483 421.77125168 114.62668228 C399.69256402 96.808794 372.12642649 91.06171112 344.32676315 91.13142776 C342.43959625 91.13014613 342.43959625 91.13014613 340.51430476 91.1288386 C337.04800496 91.12661729 333.58173643 91.13058231 330.11544061 91.13561666 C326.3677968 91.13995515 322.62015461 91.13847233 318.872509 91.13771439 C312.38800136 91.1371913 305.90350382 91.14031559 299.41899872 91.14595222 C290.04361663 91.15409642 280.66823939 91.15668544 271.29285415 91.15794022 C256.08008415 91.16012615 240.86731954 91.1667738 225.65455246 91.17624283 C210.88111523 91.18542881 196.10767947 91.19250384 181.33423996 91.19675064 C180.42284655 91.19701336 179.51145314 91.19727609 178.57244174 91.19754677 C174.00002229 91.19885186 169.42760283 91.20011555 164.85518336 91.20135868 C126.95220234 91.21171701 89.04922743 91.22932285 51.14625168 91.25168228 C49.86412123 95.48645962 48.59226476 99.72425967 47.32203293 103.96261978 C46.9640361 105.14460953 46.60603928 106.32659927 46.23719406 107.54440689 C27.59519179 169.92628741 26.812154 250.78722987 57.86318684 309.49803638 C62.66535486 318.62994671 64.14143895 326.22574122 63.94092941 336.63229752 C63.93894826 338.1024707 63.94007613 339.57265077 63.94402695 341.04281998 C63.94601169 344.98251711 63.90525158 348.92068118 63.85600924 352.86002612 C63.8118466 356.9958724 63.80810672 361.13176512 63.79983139 365.26781082 C63.77819164 373.07686612 63.72090995 380.88522435 63.65038496 388.69397455 C63.57177496 397.59369131 63.5335635 406.49344374 63.49851692 415.39342201 C63.42561467 433.67990197 63.30272198 451.96573581 63.14625168 470.25168228 C59.28975317 469.44341751 57.63470698 468.10394709 54.84547043 465.27902603 C54.03271652 464.46111588 53.21996262 463.64320572 52.3825798 462.80051041 C51.54146652 461.93877213 50.70035324 461.07703384 49.83375168 460.18918228 C48.5894841 458.93718033 48.5894841 458.93718033 47.3200798 457.65988541 C42.40214822 452.67984893 37.67759182 447.58500489 33.14625168 442.25168228 C32.39541306 441.37709366 32.39541306 441.37709366 31.62940598 440.48483658 C18.63117339 425.22715813 7.25563861 408.55093491 -2.85374832 391.25168228 C-3.19534988 390.67386002 -3.53695145 390.09603775 -3.88890457 389.50070572 C-29.98009115 345.19712278 -46.36081515 294.19503282 -52.85374832 243.25168228 C-53.00182938 242.15469009 -53.14991043 241.05769791 -53.30247879 239.92746353 C-57.91788125 204.75302928 -57.51423628 168.39551423 -52.85374832 133.25168228 C-52.71984695 132.20721939 -52.58594559 131.1627565 -52.4479866 130.08664322 C-49.39561738 107.12542696 -28.68107626 0.00854375 0 0 Z " fill="#000000" transform="translate(80.8537483215332,216.74831771850586)"/>
<path d="M0 0 C1.226548 0.00303635 1.226548 0.00303635 2.47787476 0.00613403 C3.76315567 0.00350555 3.76315567 0.00350555 5.07440186 0.00082397 C7.9211527 -0.00359561 10.76784197 -0.00065618 13.61459351 0.00271606 C15.58375053 0.00204306 17.55290747 0.00107306 19.52206421 -0.00018311 C23.65480335 -0.00166022 27.78752093 0.00049492 31.92025757 0.00515747 C37.23033871 0.01085476 42.54036932 0.00757583 47.85044861 0.00158501 C51.91834904 -0.00202023 55.9862374 -0.00088219 60.05413818 0.0017128 C62.01265468 0.00238217 63.97117226 0.00155329 65.9296875 -0.00076675 C68.6619255 -0.00329267 71.39408047 0.00054645 74.12631226 0.00613403 C74.94401093 0.0041098 75.76170959 0.00208557 76.60418701 0 C82.18783105 0.02126611 82.18783105 0.02126611 83.30209351 1.13552856 C83.40377025 2.59491795 83.43606771 4.05919904 83.44075871 5.52211857 C83.44623315 6.47507661 83.45170759 7.42803465 83.45734793 8.40987021 C83.45832604 9.46918625 83.45930414 10.52850229 83.46031189 11.61991882 C83.46771886 13.29341515 83.46771886 13.29341515 83.47527546 15.00071949 C83.49073559 18.77034501 83.499034 22.5399534 83.50741577 26.30960083 C83.51698762 28.99937189 83.52695331 31.68913878 83.53741455 34.37890625 C83.55920889 40.18584539 83.57734251 45.99278681 83.59301949 51.79974556 C83.61569125 60.19572676 83.64383776 68.59168251 83.67333876 76.98764216 C83.72104778 90.60813409 83.76430296 104.22863641 83.80477905 117.84915161 C83.84411717 131.08353484 83.88553932 144.31790882 83.92977905 157.55227661 C83.93250332 158.36746368 83.9352276 159.18265075 83.93803442 160.02254046 C83.95171362 164.11192139 83.96543395 168.20130219 83.97917473 172.29068291 C84.09319148 206.23894574 84.1999893 240.18722783 84.30209351 274.13552856 C87.76861869 275.09332794 91.2364149 276.04644703 94.70443726 276.99880981 C95.67361084 277.26665283 96.64278442 277.53449585 97.6413269 277.81045532 C160.15262631 294.94706075 233.04504115 290.14698127 292.30209351 263.13552856 C293.72183472 262.50324341 293.72183472 262.50324341 295.17025757 261.85818481 C308.56817959 255.88556841 321.75859348 249.75830773 334.30209351 242.13552856 C335.03943726 241.6927356 335.77678101 241.24994263 336.53646851 240.79373169 C348.39470945 233.63755814 359.47746919 225.76662927 370.30209351 217.13552856 C370.85397339 216.70079224 371.40585327 216.26605591 371.97445679 215.81814575 C377.44937359 211.50373887 382.5623708 207.0329455 387.41146851 202.02615356 C389.27876109 200.15886098 391.22073629 198.46145551 393.23959351 196.76052856 C398.04512472 192.60817635 402.1386181 187.91923644 406.30209351 183.13552856 C407.21666959 182.11789229 408.1320669 181.1009936 409.04818726 180.08474731 C443.05624731 141.92587185 464.12611739 94.24769128 471.65414429 43.94876099 C471.84218628 42.7174646 472.03022827 41.48616821 472.22396851 40.21755981 C472.38477905 39.11645874 472.5455896 38.01535767 472.71127319 36.88088989 C473.30209351 34.13552856 473.30209351 34.13552856 475.30209351 31.13552856 C478.17293846 30.84936877 480.82713639 30.7574067 483.69906616 30.79495239 C485.00160591 30.79429527 485.00160591 30.79429527 486.33045959 30.79362488 C489.20925145 30.7957199 492.08746553 30.81908436 494.96615601 30.84255981 C496.95869631 30.84815324 498.95124073 30.85242453 500.94378662 30.85542297 C506.19478698 30.86689173 511.44553942 30.89637635 516.69644165 30.92953491 C522.05193731 30.96019209 527.40747294 30.97391899 532.76303101 30.98904419 C543.27616092 31.02124412 553.78910662 31.07246494 564.30209351 31.13552856 C564.30947486 32.56994357 564.31472914 34.00436963 564.3190918 35.438797 C564.3222471 36.2375912 564.32540241 37.0363854 564.32865334 37.85938549 C563.89358403 75.14426253 550.70651876 116.66522622 534.33578491 150.00906372 C533.2724175 152.19657676 532.25690653 154.40138151 531.25131226 156.61599731 C527.08765485 165.75308004 522.53143265 174.55352476 517.30209351 183.13552856 C516.57941284 184.32807251 516.57941284 184.32807251 515.84213257 185.54470825 C500.81540834 210.17822985 483.10608348 233.40951227 462.62631226 253.79959106 C460.21258253 256.14349726 460.21258253 256.14349726 457.98959351 259.01052856 C455.40962985 262.17280376 452.43088252 264.71877981 449.32943726 267.35818481 C447.45174219 269.00433367 445.72081652 270.71287972 443.98959351 272.51052856 C439.91264315 276.64244904 435.43678955 280.23119002 430.90463257 283.84939575 C429.21279159 285.20719866 427.53432526 286.58042262 425.85678101 287.95584106 C403.31032048 306.35627996 378.8167261 321.82921055 352.81185913 334.868927 C350.61279857 335.97872527 348.43121126 337.11420509 346.25521851 338.26834106 C302.68716128 361.15810007 252.2283667 374.23048713 203.30209351 378.13552856 C202.22057007 378.22431274 201.13904663 378.31309692 200.02474976 378.40457153 C196.40945546 378.69809146 192.79356857 378.98194583 189.17709351 379.26052856 C187.46852173 379.39237549 187.46852173 379.39237549 185.72543335 379.52688599 C121.22008942 384.23784339 50.82286203 365.3780582 -4.69790649 333.13552856 C-6.69790649 331.13552856 -6.69790649 331.13552856 -6.94745415 328.77231258 C-6.94723679 327.77115242 -6.94701942 326.76999226 -6.94679546 325.73849392 C-6.95139426 324.58560798 -6.95599306 323.43272204 -6.96073121 322.24490017 C-6.95301586 320.32864246 -6.95301586 320.32864246 -6.94514465 318.37367249 C-6.9467316 317.01147369 -6.94919406 315.64927567 -6.95246106 314.28707987 C-6.95889895 310.53097179 -6.95278769 306.77497083 -6.94469678 303.01886976 C-6.9381383 298.97317295 -6.94306419 294.92748848 -6.94657898 290.88179016 C-6.95162946 282.95146359 -6.94596884 275.02117861 -6.93672868 267.0908572 C-6.92636392 257.86507054 -6.92641435 248.63929296 -6.92690126 239.41350157 C-6.92740229 222.95844903 -6.918229 206.5034159 -6.90371704 190.04837036 C-6.8896265 174.0630152 -6.88254633 158.07767713 -6.88320923 142.09231567 C-6.88324918 141.10769798 -6.88328914 140.12308029 -6.88333031 139.1086257 C-6.88337066 138.12574879 -6.88341102 137.14287188 -6.88345259 136.13021082 C-6.88414162 117.95703565 -6.87825736 99.78386777 -6.86929938 81.61069496 C-6.86627712 75.17205728 -6.86521912 68.73342094 -6.86476707 62.29478264 C-6.86408645 54.45450674 -6.85964285 46.61424313 -6.85043427 38.77397244 C-6.84580264 34.76987849 -6.84277577 30.76580031 -6.84402847 26.76170349 C-6.8451179 23.10219721 -6.8416398 19.44272589 -6.83437995 15.78322691 C-6.83168677 13.8196242 -6.83393585 11.85601668 -6.836312 9.89241356 C-6.83308755 8.74213537 -6.8298631 7.59185717 -6.82654095 6.40672207 C-6.82583652 5.40572426 -6.8251321 4.40472646 -6.82440633 3.37339538 C-6.57237994 -1.08512039 -3.81924817 0.01454615 0 0 Z " fill="#000000" transform="translate(234.69790649414063,418.8644714355469)"/>
<path d="M0 0 C233.18376723 0 233.18376723 0 275 41 C278 44.57594937 278 44.57594937 278 47 C278.99 47.33 279.98 47.66 281 48 C282.54407241 50.18444353 283.91202517 52.31873885 285.25 54.625 C285.64477539 55.30014648 286.03955078 55.97529297 286.44628906 56.67089844 C296.05629022 73.37011756 302.04104083 90.7220609 304 110 C304.06703125 110.64743164 304.1340625 111.29486328 304.203125 111.96191406 C307.7871698 149.16360988 300.24874828 186.28295007 276.16015625 215.5234375 C262.50412873 231.17971498 244.50954506 242.85777734 225 250 C225.33209473 250.4626123 225.66418945 250.92522461 226.00634766 251.40185547 C236.90381857 266.61597979 236.90381857 266.61597979 240.125 272.1875 C243.54517736 278.09327137 247.60181856 283.54048067 251.59960938 289.06103516 C260.86960582 301.89616622 269.72612684 314.98443767 278.44946289 328.19506836 C282.10829421 333.7137103 285.87608687 339.14839085 289.6875 344.5625 C295.39477719 352.69559635 301.07786424 360.84350883 306.67236328 369.0546875 C307.59249334 370.40290307 308.51554794 371.74912557 309.44091797 373.09375 C310.86334727 375.16204679 312.27643367 377.23643971 313.6875 379.3125 C314.12223633 379.9413208 314.55697266 380.5701416 315.00488281 381.21801758 C318 385.65742778 318 385.65742778 318 389 C306.29134956 389.32498441 294.58377817 389.57342694 282.87152958 389.72537041 C277.4321781 389.79831607 271.99592018 389.89715666 266.55834961 390.05615234 C261.30607935 390.20876111 256.05677448 390.29207015 250.80245781 390.3282814 C248.80262991 390.35406785 246.80295718 390.40443348 244.80439949 390.48022079 C229.53872553 391.03585936 229.53872553 391.03585936 225.28877258 387.62772942 C221.9763407 383.83753503 220.0173986 379.57296678 218 375 C217.09554406 373.55646867 216.16620109 372.1270268 215.1796875 370.73828125 C214.59985107 369.87505249 214.59985107 369.87505249 214.00830078 368.99438477 C213.63431152 368.43936279 213.26032227 367.88434082 212.875 367.3125 C209.93196648 362.91284245 206.99859636 358.50797812 204.125 354.0625 C203.61195313 353.26972656 203.09890625 352.47695313 202.5703125 351.66015625 C201.29679765 349.50278409 200.18571223 347.37046023 199.09375 345.12109375 C197.15184826 341.17957803 194.86711481 337.61150913 192.375 334 C188.43658707 328.19406645 184.65996803 322.31202224 180.97119141 316.3449707 C177.48814783 310.7318964 173.87531294 305.20943862 170.25 299.6875 C166.43194529 293.86037323 162.81744006 288.04841999 159.6015625 281.86328125 C155.19321774 273.98202098 150.00724053 266.5108608 145 259 C142.05102927 258.52061036 142.05102927 258.52061036 138.53076172 258.56762695 C137.85649202 258.55735316 137.18222233 258.54707937 136.48752022 258.53649426 C134.30148525 258.50656671 132.11589918 258.49705884 129.9296875 258.48828125 C128.5814455 258.47282092 127.23321812 258.4560251 125.88500977 258.43786621 C120.88183475 258.37987441 115.87838681 258.34776727 110.875 258.3125 C99.69625 258.209375 88.5175 258.10625 77 258 C77 301.23 77 344.46 77 389 C51.59 389 26.18 389 0 389 C0 260.63 0 132.26 0 0 Z M77 73 C77 110.29 77 147.58 77 186 C99.831875 186.061875 99.831875 186.061875 123.125 186.125 C127.90500488 186.14320801 132.68500977 186.16141602 137.60986328 186.18017578 C141.94993448 186.1868707 141.94993448 186.1868707 146.29000854 186.19088745 C148.20106949 186.19392904 150.11212696 186.20090063 152.02316284 186.21115112 C173.60235465 186.32096383 195.80495771 185.70130168 212.24609375 169.83203125 C224.47346098 156.79698472 226.58272375 140.31501216 226.09326172 122.97753906 C225.3769287 107.78827875 220.27485535 95.64299572 209.1875 85.25 C197.02944664 75.16885019 181.46637462 72.82526624 166.11743164 72.88647461 C165.13528152 72.88635407 164.15313139 72.88623354 163.14121914 72.88610935 C159.98084132 72.88685218 156.82052343 72.89445161 153.66015625 72.90234375 C151.70145699 72.90381512 149.74275735 72.90483463 147.78405762 72.90539551 C140.54353239 72.91062577 133.3030156 72.92458704 126.0625 72.9375 C109.871875 72.958125 93.68125 72.97875 77 73 Z " fill="#000000" transform="translate(2797,115)"/>
<path d="M0 0 C94.38 0 188.76 0 286 0 C286 23.76 286 47.52 286 72 C284.21846618 73.78153382 281.82545538 73.12254859 279.45308393 73.12908131 C278.65057048 73.12616847 277.84805702 73.12325563 277.02122498 73.12025452 C276.17507521 73.12110894 275.32892545 73.12196337 274.45713478 73.12284368 C271.59957601 73.12450108 268.74207492 73.11897288 265.88452148 73.11352539 C263.84499106 73.11324355 261.80546054 73.11340119 259.76593018 73.1139679 C254.21037264 73.11425599 248.65483648 73.10835738 243.09928393 73.10139394 C237.30032632 73.09516234 231.50136828 73.09455676 225.70240784 73.09336853 C214.71286173 73.09025464 203.72332552 73.08204048 192.73378378 73.07201904 C180.22614015 73.06085969 167.71849606 73.0553479 155.21084869 73.05032361 C129.47389237 73.03985791 103.73694962 73.02151172 78 73 C78 100.72 78 128.44 78 157 C135.42 157 192.84 157 252 157 C252 179.77 252 202.54 252 226 C251 227 251 227 248.17514706 227.12304783 C246.90030736 227.12212604 245.62546766 227.12120424 244.31199646 227.12025452 C243.60468748 227.12110894 242.89737849 227.12196337 242.1686359 227.12284368 C239.78093718 227.12450055 237.39330757 227.11897377 235.00561523 227.11352539 C233.30105593 227.11324354 231.59649649 227.11340122 229.89193726 227.1139679 C225.249572 227.11425594 220.60723235 227.10835806 215.96487308 227.10139394 C211.11884105 227.09516159 206.27280849 227.0945567 201.42677307 227.09336853 C192.24344036 227.09025486 183.0601195 227.082041 173.87679201 227.07201904 C161.47207388 227.05877408 149.06735254 227.05335828 136.66262913 227.04751682 C117.10841054 227.03810113 97.55421695 227.01818245 78 227 C78.33 256.37 78.66 285.74 79 316 C147.31 316 215.62 316 286 316 C286 340.09 286 364.18 286 389 C191.62 389 97.24 389 0 389 C0 260.63 0 132.26 0 0 Z " fill="#000000" transform="translate(1357,116)"/>
<path d="M0 0 C0.97195313 0.20399414 1.94390625 0.40798828 2.9453125 0.61816406 C33.9160258 7.35135395 63.40089426 19.74046909 88 40 C89.56996992 41.22700097 91.14028872 42.45355564 92.7109375 43.6796875 C105.60777637 53.995965 117.33270235 65.91339824 126 80 C126.69480469 81.02222656 127.38960937 82.04445313 128.10546875 83.09765625 C141.13317293 102.44322051 152.08055875 123.64446996 155 147 C128.27 147 101.54 147 74 147 C70.04 139.08 70.04 139.08 66 131 C59.70465642 120.96679617 52.95828891 111.46126827 44.25 103.375 C43 102 43 102 43 100 C42.46246094 99.7628125 41.92492188 99.525625 41.37109375 99.28125 C38.96831873 97.98288063 36.89749761 96.44100885 34.73876953 94.77612305 C4.82353328 72.00202752 -32.89889791 66.51891035 -69.4050293 71.45532227 C-91.6846305 74.92939769 -112.6741598 84.61119959 -130 99 C-130.75667969 99.60585937 -131.51335937 100.21171875 -132.29296875 100.8359375 C-137.01663827 104.75312686 -140.48346509 109.00196195 -144 114 C-144.763125 114.99773437 -145.52625 115.99546875 -146.3125 117.0234375 C-156.18436843 130.05239622 -162.3951853 144.37526614 -167 160 C-167.29648437 160.99128906 -167.59296875 161.98257813 -167.8984375 163.00390625 C-177.24932628 197.02817979 -172.0438369 236.20545692 -154.94140625 266.89990234 C-152.50341936 271.08488991 -149.82342516 275.06704993 -147 279 C-146.36771484 279.88945313 -146.36771484 279.88945313 -145.72265625 280.796875 C-129.36904992 303.50752118 -104.89806558 317.38394355 -78 324 C-77.3296875 324.16661133 -76.659375 324.33322266 -75.96875 324.50488281 C-40.04708163 332.97664347 -1.99770634 325.5804901 29.0625 306.375 C32.25483988 304.28363276 35.19109062 302.0749832 38.0625 299.5625 C41 297 41 297 43 297 C43.39058594 296.10861328 43.39058594 296.10861328 43.7890625 295.19921875 C45.08371096 292.84797009 46.37647468 291.58756152 48.375 289.8125 C58.65516421 279.71924786 65.84740597 267.32086171 71.57421875 254.21875 C73 251 73 251 74 250 C76.52541002 249.90495749 79.02337126 249.87442842 81.54907227 249.88647461 C82.33925751 249.88632858 83.12944275 249.88618256 83.943573 249.8860321 C86.56787822 249.88673143 89.19211336 249.89452473 91.81640625 249.90234375 C93.63101665 249.90420786 95.44562756 249.9056318 97.26023865 249.90663147 C102.0459023 249.91045721 106.8315358 249.92028796 111.6171875 249.93133545 C116.49674064 249.94154837 121.37629864 249.94612883 126.25585938 249.95117188 C135.83725286 249.96191018 145.41862393 249.97898727 155 250 C151.97760402 275.21376691 139.23871936 299.05742792 124.28955078 319.25488281 C123.05609388 320.92408953 121.85285002 322.61170485 120.65234375 324.3046875 C111.27307446 337.11310532 99.73821528 348.53969679 87 358 C85.65808594 359.06734375 85.65808594 359.06734375 84.2890625 360.15625 C58.97839395 379.97049991 28.30390171 391.19201013 -3 397 C-4.31436035 397.24991699 -4.31436035 397.24991699 -5.65527344 397.50488281 C-31.9461023 402.29856735 -60.76515957 401.82582433 -87 397 C-87.79212891 396.86609863 -88.58425781 396.73219727 -89.40039062 396.59423828 C-115.83819577 392.09151548 -141.75505448 382.02033548 -164 367 C-164.85150635 366.42813965 -164.85150635 366.42813965 -165.72021484 365.84472656 C-173.16651829 360.8074616 -179.99933507 355.45652898 -186.5546875 349.29296875 C-188.65250304 347.32584779 -190.79480787 345.46861204 -193 343.625 C-222.89509354 317.52805359 -241.7531115 276.43344987 -249 238 C-249.18618896 237.05858154 -249.37237793 236.11716309 -249.56420898 235.1472168 C-251.44093835 224.21645734 -251.33730754 213.25923716 -251.31567383 202.19799805 C-251.31252273 198.83674382 -251.336012 195.47637989 -251.36132812 192.11523438 C-251.40001005 179.1300637 -250.6468427 166.72423947 -248 154 C-247.78625732 152.96818604 -247.57251465 151.93637207 -247.35229492 150.87329102 C-246.77788517 148.35056113 -246.13712361 145.86567017 -245.4375 143.375 C-245.18629395 142.476604 -244.93508789 141.57820801 -244.67626953 140.65258789 C-238.99186305 121.14237839 -230.69170456 103.23891564 -220 86 C-219.63165039 85.39381836 -219.26330078 84.78763672 -218.88378906 84.16308594 C-208.21720557 66.69070186 -193.11971964 51.47282189 -177 39 C-175.98550781 38.17242187 -174.97101563 37.34484375 -173.92578125 36.4921875 C-150.99903668 18.28585268 -122.37350201 7.18571389 -94 1 C-93.02611328 0.78682129 -92.05222656 0.57364258 -91.04882812 0.35400391 C-62.32821544 -5.59877265 -28.73853039 -6.05192025 0 0 Z " fill="#000000" transform="translate(1148,112)"/>
<path d="M0 0 C3.30863858 -0.00435029 6.61591433 -0.04072142 9.92431641 -0.07861328 C49.85562344 -0.28675338 90.46288212 11.03587687 120.34228516 38.37060547 C121.19822266 39.08474609 122.05416016 39.79888672 122.93603516 40.53466797 C151.88232326 64.99244937 165.0993013 104.67740534 168.34228516 141.37060547 C168.81545087 149.99899744 168.72429494 158.63838712 168.68286133 167.27636719 C168.6820128 169.79189544 168.6824946 172.30742444 168.68418884 174.82295227 C168.68486594 180.18923484 168.67651071 185.55538033 168.65947533 190.92162704 C168.63486288 198.67983895 168.62725762 206.43799826 168.62351135 214.19624497 C168.61698128 226.79020276 168.5971148 239.38410152 168.56860352 251.97802734 C168.54097295 264.19579783 168.51978371 276.41355215 168.50708008 288.63134766 C168.50629191 289.38725161 168.50550374 290.14315557 168.50469168 290.9219657 C168.50077594 294.71494982 168.49698497 298.50793404 168.49325597 302.30091834 C168.46226757 333.65753307 168.40702344 365.01403775 168.34228516 396.37060547 C142.93228516 396.37060547 117.52228516 396.37060547 91.34228516 396.37060547 C91.32246582 389.05767334 91.30264648 381.74474121 91.28222656 374.21020508 C91.21731544 350.768144 91.14277609 327.32612359 91.06223354 303.88411146 C91.04971581 300.23825229 91.03728286 296.59239284 91.02490234 292.9465332 C91.02243635 292.22075786 91.01997036 291.49498251 91.01742963 290.74721397 C90.97778758 279.02061432 90.94500255 267.29400514 90.91478534 255.56737786 C90.88358827 243.52021474 90.8449441 231.47309181 90.7994951 219.42597395 C90.77420106 212.6654399 90.75226105 205.90493069 90.73894119 199.1443615 C90.7260488 192.77258177 90.70391775 186.40089896 90.67490196 180.0291729 C90.66588206 177.69888867 90.66014912 175.36858887 90.65807152 173.03828812 C90.62861566 145.00169299 87.71214958 117.32311848 68.34228516 95.37060547 C51.27181268 78.53888086 26.38898193 73.65729446 3.27978516 73.12060547 C-21.14167794 73.69167132 -45.17533668 79.32852781 -62.65771484 97.37060547 C-63.22876953 97.93263672 -63.79982422 98.49466797 -64.38818359 99.07373047 C-76.36689296 111.76069257 -81.31948128 132.44553548 -82.65771484 149.37060547 C-82.73921783 150.24530833 -82.82072083 151.1200112 -82.9046936 152.02122021 C-83.86564603 163.426003 -83.7837228 174.80406644 -83.75537109 186.2409668 C-83.75344888 188.52709419 -83.75198652 190.81322201 -83.75094604 193.09934998 C-83.74780119 197.9948131 -83.74155768 202.89025869 -83.73287964 207.7857151 C-83.71930511 215.52044669 -83.71345299 223.25517257 -83.70874023 230.98991394 C-83.70142683 241.82425365 -83.6913245 252.65858575 -83.67822266 263.49291992 C-83.67739484 264.17856322 -83.67656703 264.86420651 -83.67571414 265.57062688 C-83.66980932 270.44145319 -83.66377177 275.31227934 -83.65771484 280.18310547 C-83.65077631 285.76977527 -83.64391355 291.35644515 -83.63720703 296.94311523 C-83.6363789 297.63185468 -83.63555078 298.32059412 -83.63469756 299.03020445 C-83.62103216 310.49688658 -83.61130542 321.96356778 -83.60429668 333.43025607 C-83.59930217 341.12720184 -83.58942629 348.82412153 -83.5758667 356.52105677 C-83.56843963 361.29019414 -83.56509823 366.05932786 -83.56290054 370.82847023 C-83.56101934 373.04855566 -83.55740039 375.26864036 -83.55196762 377.48871994 C-83.54481538 380.50481096 -83.54371099 383.52084355 -83.54418945 386.53694153 C-83.54059449 387.42717902 -83.53699953 388.3174165 -83.53329563 389.23463088 C-83.54362142 395.25651204 -83.54362142 395.25651204 -84.65771484 396.37060547 C-87.0243359 396.50078119 -89.36340327 396.5671997 -91.73193359 396.59179688 C-92.47174469 396.60330276 -93.21155579 396.61480865 -93.9737854 396.62666321 C-96.43088563 396.6634884 -98.88801206 396.69304766 -101.34521484 396.72216797 C-103.04533268 396.7452689 -104.74544661 396.76865908 -106.44555664 396.79232788 C-110.01331294 396.84084853 -113.58109225 396.88577204 -117.14892578 396.92822266 C-121.73269072 396.98306017 -126.31627855 397.04687981 -130.89988708 397.1133976 C-134.41186193 397.16336285 -137.92388576 397.20853429 -141.4359436 397.25223923 C-143.12653587 397.27387218 -144.81710932 397.29702936 -146.50765991 397.32170486 C-148.86624271 397.35542186 -151.22481224 397.38269334 -153.58349609 397.40820312 C-154.2889859 397.41957809 -154.99447571 397.43095306 -155.72134399 397.44267273 C-157.36691331 397.45707026 -159.01280715 397.41943511 -160.65771484 397.37060547 C-162.61909774 395.40922257 -161.78634745 392.39398747 -161.79612035 389.7821632 C-161.79457174 388.82461713 -161.79302314 387.86707105 -161.79142761 386.88050842 C-161.79369317 385.87146609 -161.79595873 384.86242376 -161.79829293 383.82280439 C-161.80466537 380.41302685 -161.80380146 377.00328873 -161.80297852 373.59350586 C-161.80596828 371.15954028 -161.80937038 368.72557519 -161.81315613 366.29161072 C-161.82110259 360.3453691 -161.82421203 354.3991432 -161.82476851 348.45289773 C-161.82524343 343.61230369 -161.82729706 338.77171292 -161.83046913 333.93111992 C-161.83928716 320.19382623 -161.84388761 306.45654037 -161.84313866 292.71924383 C-161.8430987 291.97778936 -161.84305875 291.2363349 -161.84301758 290.47241211 C-161.8429767 289.73004551 -161.84293582 288.9876789 -161.8428937 288.22281634 C-161.8424886 276.23315341 -161.85202056 264.24352209 -161.86615594 252.25386829 C-161.88056998 239.92983223 -161.88742313 227.60581152 -161.88656217 215.28176683 C-161.88623156 208.36855166 -161.8889176 201.45536948 -161.89974022 194.54216194 C-161.90987827 188.02429601 -161.90945872 181.5064814 -161.90222359 174.98861122 C-161.90118481 172.6079727 -161.90349816 170.22732973 -161.90958405 167.84669876 C-161.95181623 150.16714476 -161.27452065 133.09062404 -156.90771484 115.87060547 C-156.64603516 114.81526611 -156.38435547 113.75992676 -156.11474609 112.67260742 C-148.8914131 84.18321185 -136.2648482 59.68010372 -114.65771484 39.37060547 C-113.99771484 39.37060547 -113.33771484 39.37060547 -112.65771484 39.37060547 C-112.43083984 38.79568359 -112.20396484 38.22076172 -111.97021484 37.62841797 C-106.17603968 27.66105713 -90.4842222 21.49789478 -80.65771484 16.37060547 C-79.70251953 15.86529297 -78.74732422 15.35998047 -77.76318359 14.83935547 C-53.74272645 3.0371781 -26.35846396 -0.00386091 0 0 Z " fill="#000000" transform="translate(1856.65771484375,107.62939453125)"/>
<path d="M0 0 C25.74 0 51.48 0 78 0 C78.01981934 7.28674805 78.03963867 14.57349609 78.06005859 22.08105469 C78.12503006 45.46445527 78.19957309 68.84781545 78.28005161 92.23116736 C78.29256869 95.87058268 78.30500175 99.50999828 78.31738281 103.14941406 C78.31984881 103.87387786 78.3223148 104.59834165 78.32485552 105.3447589 C78.36445017 117.03564814 78.39725594 128.72654689 78.42749982 140.41746363 C78.45874539 152.4364004 78.49740942 164.45529726 78.54279006 176.47418904 C78.56803475 183.21532213 78.58974592 189.95642582 78.60334396 196.69759369 C78.61628071 203.05707688 78.63845738 209.41646424 78.66738319 215.77589417 C78.67636903 218.09601548 78.68212784 220.4161522 78.68421364 222.73628998 C78.69563614 233.52296097 78.83715828 244.24210279 79.85586548 254.98712158 C79.96387971 256.16462577 79.96387971 256.16462577 80.07407606 257.36591792 C82.07617342 275.96149852 91.80764848 294.51618338 106.01953125 306.55859375 C114.59133592 313.32349811 123.52883942 317.11592061 134 320 C135.18207031 320.33902344 136.36414062 320.67804688 137.58203125 321.02734375 C155.28787909 325.19004037 177.57739736 325.37011854 195 320 C195.68304199 319.79600586 196.36608398 319.59201172 197.06982422 319.38183594 C216.3228564 313.53054945 230.1934224 303.52616338 239.8515625 285.5546875 C250.39298672 264.54141023 251.29830742 242.93719621 251.31884766 219.89868164 C251.32816112 217.49255543 251.33833187 215.0864324 251.34928894 212.68031311 C251.37363448 206.86101924 251.38913862 201.04175183 251.40060402 195.22241945 C251.4144494 188.44261305 251.43940994 181.66286071 251.46498732 174.88309007 C251.51029864 162.79553183 251.54697763 150.70796377 251.578125 138.62036133 C251.60837506 126.88824749 251.64275464 115.15615755 251.68261719 103.42407227 C251.68507874 102.6991862 251.68754028 101.97430013 251.69007643 101.22744782 C251.70245228 97.59039371 251.71490857 93.95333989 251.72740483 90.31628621 C251.83073777 60.21088621 251.91840887 30.10546902 252 0 C277.08 0 302.16 0 328 0 C328.04417954 31.39771763 328.08107362 62.79540499 328.10213066 94.19314404 C328.10463175 97.90895481 328.10722043 101.62476551 328.10986328 105.34057617 C328.11065021 106.45009494 328.11065021 106.45009494 328.11145304 107.58202823 C328.12013027 119.52257697 328.13588529 131.46310624 328.15430559 143.40364347 C328.17307959 155.67679868 328.18413249 167.94994378 328.18817699 180.22311276 C328.19090658 187.78221648 328.19949364 195.34126515 328.21583293 202.9003519 C328.2277618 208.71924103 328.22889259 214.53809573 328.22621536 220.35699463 C328.22676114 222.72753931 328.23067926 225.09808626 328.23841095 227.46861839 C328.35148929 263.95869728 322.47156695 297.03151339 304 329 C303.41605469 330.04414063 302.83210938 331.08828125 302.23046875 332.1640625 C285.31292381 360.73042791 252.74022964 381.62049232 221.07714844 389.75048828 C202.57220506 394.12669731 184.421634 396.39954271 165.4375 396.3125 C164.19300583 396.30976578 164.19300583 396.30976578 162.92337036 396.30697632 C124.12008792 396.16397641 84.80814151 387.92658722 54 363 C53.21786133 362.3817334 53.21786133 362.3817334 52.41992188 361.75097656 C44.94074097 355.81876413 38.60914678 349.78799862 33 342 C32.18025154 340.89411293 31.359904 339.78866976 30.5390625 338.68359375 C8.37966981 308.56954728 -0.23662821 274.29726145 -0.12025452 237.14190674 C-0.12110894 236.11893265 -0.12196337 235.09595857 -0.12284368 234.04198527 C-0.1244763 230.65199517 -0.11901382 227.26205577 -0.11352539 223.87207031 C-0.11324301 221.42698162 -0.11340224 218.98189284 -0.1139679 216.5368042 C-0.1141948 211.2920814 -0.11137882 206.04736983 -0.10573006 200.80265045 C-0.09756847 193.21986744 -0.09499508 185.63709043 -0.09374207 178.0543035 C-0.09155884 165.74876401 -0.08491859 153.44323119 -0.07543945 141.13769531 C-0.06624643 129.19108107 -0.05917486 117.24446864 -0.05493164 105.29785156 C-0.05466892 104.56022934 -0.05440619 103.82260712 -0.05413551 103.06263271 C-0.05283038 99.36183066 -0.05156669 95.6610286 -0.05032361 91.96022654 C-0.03997371 61.30681186 -0.02154769 30.65340943 0 0 Z " fill="#000000" transform="translate(2404,115)"/>
<path d="M0 0 C0.55959412 0.37191467 1.11918823 0.74382935 1.69573975 1.12701416 C24.62382894 16.41776116 45.19127486 34.06159464 64.72354126 53.42431641 C66.14166111 54.82957678 67.56332674 56.23125612 68.98510742 57.6328125 C75.07395498 63.71455012 80.57983496 70.08398309 85.9375 76.8125 C87.39275036 78.56506455 88.85073081 80.31536894 90.3125 82.0625 C101.05655946 95.2602201 110.19629194 109.22092413 118.9375 123.8125 C119.32534668 124.45541992 119.71319336 125.09833984 120.11279297 125.76074219 C122.49154378 129.72271983 124.75459278 133.74009249 126.9375 137.8125 C127.35209473 138.58577637 127.76668945 139.35905273 128.19384766 140.15576172 C135.69363278 154.2998329 141.64012926 168.71844654 146.9375 183.8125 C147.57160955 185.56901223 148.20572395 187.32552272 148.83984375 189.08203125 C155.19422915 207.03047312 159.26392425 225.52678729 162.25 244.3125 C162.40944092 245.30080811 162.56888184 246.28911621 162.7331543 247.30737305 C164.10610078 256.53178626 164.41329157 265.37674825 164.9375 274.8125 C135.2375 274.8125 105.5375 274.8125 74.9375 274.8125 C73.74565809 270.04513236 72.60415035 265.37614416 71.640625 260.57421875 C68.80161831 246.6921235 65.69237249 233.16642887 60.9375 219.8125 C60.51694336 218.607146 60.51694336 218.607146 60.08789062 217.37744141 C50.36835222 189.75828951 36.95421965 162.9873807 18.9375 139.8125 C17.79087891 138.27142578 17.79087891 138.27142578 16.62109375 136.69921875 C11.58292524 129.95873732 6.22265115 123.66558992 0.46875 117.52734375 C-1.65908523 115.2451748 -3.71911157 112.93033128 -5.75 110.5625 C-11.66841537 103.75632232 -18.15760464 97.6043997 -25.0625 91.8125 C-25.87436768 91.12994141 -25.87436768 91.12994141 -26.70263672 90.43359375 C-47.16950744 73.30210549 -68.94195753 59.25479768 -93.0625 47.8125 C-93.80516113 47.45446289 -94.54782227 47.09642578 -95.31298828 46.72753906 C-162.09532283 14.69091259 -237.46379886 12.12077618 -308.125 31.75 C-308.87160889 31.95407471 -309.61821777 32.15814941 -310.38745117 32.3684082 C-314.21517649 33.47819772 -317.71065297 34.62821814 -321.25837708 36.48635864 C-336.38502921 44.117738 -353.10016672 42.81229459 -369.59045839 42.72418666 C-373.94266246 42.70838693 -378.29465735 42.73250319 -382.64682007 42.75209045 C-390.85931496 42.78313745 -399.07138973 42.77913268 -407.28391016 42.76201588 C-416.64578159 42.74424905 -426.00743248 42.76634747 -435.36927152 42.79152286 C-454.60043095 42.84235934 -473.83130781 42.84401603 -493.0625 42.8125 C-492.41066051 39.10600996 -491.9069464 37.15628639 -489.18359375 34.5078125 C-488.59634521 33.92813721 -488.00909668 33.34846191 -487.40405273 32.7512207 C-486.77571533 32.15269287 -486.14737793 31.55416504 -485.5 30.9375 C-484.85812744 30.31254639 -484.21625488 29.68759277 -483.55493164 29.04370117 C-479.18281985 24.81207217 -474.72544164 20.72165784 -470.0625 16.8125 C-469.17046875 16.03132813 -468.2784375 15.25015625 -467.359375 14.4453125 C-458.02727312 6.31642982 -448.13527889 -1.00628277 -438.0625 -8.1875 C-437.09207764 -8.88190186 -437.09207764 -8.88190186 -436.10205078 -9.59033203 C-424.99390297 -17.46842988 -413.09558676 -23.84691819 -401.0625 -30.1875 C-400.01739258 -30.74800049 -400.01739258 -30.74800049 -398.95117188 -31.31982422 C-385.80942282 -38.35908416 -371.95403246 -43.82165398 -358.0625 -49.1875 C-356.7312207 -49.70425293 -356.7312207 -49.70425293 -355.37304688 -50.23144531 C-326.64585837 -61.16151106 -295.44705649 -65.65536441 -265.0625 -69.1875 C-264.15636963 -69.29876221 -263.25023926 -69.41002441 -262.31665039 -69.5246582 C-176.61447359 -78.84102041 -80.69569808 -52.36482336 0 0 Z " fill="#000000" transform="translate(634.0625,91.1875)"/>
<path d="M0 0 C30.36 0 60.72 0 92 0 C94.64 4.62 97.28 9.24 100 14 C101.63990162 16.51467472 103.27876059 18.98444111 105 21.4375 C108.33935687 26.31337076 111.30171133 31.243131 114 36.5 C116.97859534 42.29221309 120.33168042 47.65343009 124.0078125 53.02563477 C128.09650345 59.04019208 131.81345454 65.25404958 135.52490234 71.50634766 C138.73422471 76.9076548 142.01574848 82.25329394 145.375 87.5625 C148.68616452 92.80237255 151.74580169 98.11244057 154.66015625 103.5859375 C156.32276478 106.5815412 158.21330759 109.36837384 160.14453125 112.1953125 C162.80879117 116.22255171 165.34372135 120.32573534 167.875 124.4375 C168.37604248 125.24388916 168.87708496 126.05027832 169.39331055 126.88110352 C170.09194214 128.02083618 170.09194214 128.02083618 170.8046875 129.18359375 C171.22733887 129.86993896 171.64999023 130.55628418 172.08544922 131.26342773 C173 133 173 133 173 135 C173.66 135 174.32 135 175 135 C176.14501953 136.52880859 176.14501953 136.52880859 177.3828125 138.6484375 C178.04990234 139.78539062 178.04990234 139.78539062 178.73046875 140.9453125 C179.19066406 141.74710938 179.65085937 142.54890625 180.125 143.375 C180.59292969 144.1690625 181.06085937 144.963125 181.54296875 145.78125 C185 151.7277469 185 151.7277469 185 154 C185.66 154 186.32 154 187 154 C187.22558594 153.34902344 187.45117188 152.69804687 187.68359375 152.02734375 C189.44905289 147.9673116 191.73135838 144.31948553 194.0625 140.5625 C194.55419678 139.76408691 195.04589355 138.96567383 195.55249023 138.14306641 C198.86151459 132.78763652 202.23395776 127.47579011 205.65234375 122.18969727 C211.71262919 112.8175521 217.70136402 103.40963046 223.1875 93.6875 C226.59659484 87.65340214 230.22377113 81.80958288 234 76 C235.39701627 73.83408331 236.79309627 71.66759659 238.1875 69.5 C238.55504395 68.92886475 238.92258789 68.35772949 239.30126953 67.76928711 C242.65802968 62.54616831 245.99017574 57.30758073 249.3125 52.0625 C249.81612061 51.26972656 250.31974121 50.47695312 250.83862305 49.66015625 C252.96545009 46.29643848 255.06811611 42.93104025 257.03125 39.46875 C259.33651298 35.40709618 261.75017398 31.42083636 264.1875 27.4375 C264.90280884 26.26646729 264.90280884 26.26646729 265.63256836 25.07177734 C269.40126419 18.92486345 273.27775463 12.85536995 277.22265625 6.8203125 C279.14891596 3.86636453 279.14891596 3.86636453 281 0 C310.7 0 340.4 0 371 0 C370.050586 3.79765599 369.11020241 5.6287041 366.96484375 8.796875 C366.32820801 9.74369141 365.69157227 10.69050781 365.03564453 11.66601562 C363.99706299 13.19258789 363.99706299 13.19258789 362.9375 14.75 C361.47518626 16.92182507 360.01294886 19.09370154 358.55078125 21.265625 C357.79009599 22.39142451 357.02919013 23.517075 356.26806641 24.64257812 C352.70288334 29.91667774 349.1628606 35.20754888 345.625 40.5 C345.00874756 41.41620117 344.39249512 42.33240234 343.75756836 43.27636719 C340.63991192 47.93530446 337.59659294 52.62808966 334.6525116 57.39801025 C327.25554491 69.37727344 319.29600141 80.96978853 311.36889648 92.60205078 C303.09492636 104.57443792 303.09492636 104.57443792 295.51171875 116.984375 C289.55827952 127.53534337 282.35545588 137.38260342 275.53369141 147.38232422 C266.12017095 161.14476207 266.12017095 161.14476207 257.50439453 175.40966797 C254.81363681 180.04273181 251.7404132 184.41322897 248.6875 188.8125 C247.37044981 190.72611947 246.05404563 192.64018371 244.73828125 194.5546875 C244.10229004 195.47862305 243.46629883 196.40255859 242.81103516 197.35449219 C239.90710017 201.59647648 237.06299928 205.87753016 234.2331543 210.16918945 C232.41664657 212.91459782 230.70044728 215.31094333 228.40693665 217.69166565 C224.2478467 223.56999396 225.299874 231.22809547 225.34057617 238.12475586 C225.33211749 239.77109997 225.32147087 241.41743408 225.30880737 243.06375122 C225.28070398 247.51994622 225.28312499 251.97565914 225.29110122 256.431916 C225.29422966 261.09380718 225.26918203 265.75554574 225.24714661 270.41737366 C225.20971649 279.23928552 225.19755922 288.06104323 225.1945222 296.88302666 C225.18895254 308.80831688 225.14426093 320.73345667 225.10178089 332.65866184 C225.03591061 351.43914533 225.02224004 370.21929681 225 389 C199.59 389 174.18 389 148 389 C148.14824219 377.41390625 148.29648438 365.8278125 148.44921875 353.890625 C148.5007679 346.4985533 148.54740988 339.106974 148.57226562 331.71484375 C148.61251302 320.01126682 148.67132651 308.31015352 148.8605957 296.60791016 C148.99843478 288.07978378 149.06683004 279.5541931 149.05671436 271.02491546 C149.05366897 266.52015956 149.08205305 262.02125452 149.194067 257.51776886 C149.775052 232.97818192 146.11516626 217.67528829 130.20311928 198.67708588 C127.31080114 195.16253081 124.82000651 191.45734103 122.375 187.625 C121.61856553 186.48346066 120.86079481 185.34280543 120.1015625 184.203125 C117.595052 180.38279302 115.13054421 176.53657171 112.67114258 172.68579102 C107.4473021 164.53632856 102.03254351 156.51177174 96.64990234 148.46679688 C93.99073877 144.49103648 91.33852657 140.51064889 88.68774414 136.52929688 C86.48900757 133.22827354 84.28333934 129.93208848 82.0703125 126.640625 C77.21916546 119.4127571 72.43807144 112.1637499 67.875 104.75 C64.36111687 99.04580807 60.62576589 93.57103789 56.68579102 88.15405273 C52.18530178 81.94052547 48.0924212 75.48667883 44 69 C42.79219873 67.10382765 41.58390136 65.20797117 40.375 63.3125 C38.68485906 60.65711802 36.99953083 57.9992513 35.328125 55.33203125 C31.59189125 49.39347623 27.67314344 43.6138472 23.66015625 37.859375 C17.97879323 29.66056141 12.4954669 21.32401603 7 13 C6.56751953 12.34499512 6.13503906 11.68999023 5.68945312 11.01513672 C0 2.36181891 0 2.36181891 0 0 Z " fill="#000000" transform="translate(3108,115)"/>
<path d="M0 0 C101.64 0 203.28 0 308 0 C308 24.09 308 48.18 308 73 C270.05 73 232.1 73 193 73 C193 177.28 193 281.56 193 389 C167.26 389 141.52 389 115 389 C115 284.72 115 180.44 115 73 C77.05 73 39.1 73 0 73 C0 48.91 0 24.82 0 0 Z " fill="#000000" transform="translate(2054,115)"/>
<path d="M0 0 C12.02004622 10.60218865 17.11034902 25.75030357 18.158535 41.36108398 C18.40282666 47.4380607 18.34575408 53.51349868 18.29296875 59.59375 C18.28735754 61.52144029 18.28309468 63.44913492 18.28010559 65.37683105 C18.26877672 70.39418837 18.23941591 75.41127556 18.20599365 80.42852783 C18.17503147 85.57080433 18.16154498 90.71312545 18.14648438 95.85546875 C18.1145319 105.90378221 18.06186518 115.95182615 18 126 C8.43 126 -1.14 126 -11 126 C-12.0582144 121.76714238 -12.03092848 118.04235948 -11.87890625 113.734375 C-11.85824097 113.03070801 -11.83757568 112.32704102 -11.81628418 111.60205078 C-11.73778053 108.98451075 -11.64956688 106.36726919 -11.5625 103.75 C-11.2840625 94.96375 -11.2840625 94.96375 -11 86 C-31.79 86 -52.58 86 -74 86 C-74 99.2 -74 112.4 -74 126 C-83.24 126 -92.48 126 -102 126 C-102.09082719 114.54180084 -102.16401743 103.08384576 -102.20724869 91.62536621 C-102.22801076 86.30316659 -102.25611734 80.98122872 -102.30175781 75.65917969 C-102.3456254 70.51089959 -102.36922237 65.36286926 -102.37950897 60.2144165 C-102.38682765 58.26267574 -102.40111626 56.31094666 -102.42292023 54.35931396 C-102.62563532 35.44032885 -100.22741521 17.42802307 -87.78515625 2.30859375 C-64.63663372 -20.45476201 -24.74786731 -18.82823856 0 0 Z M-67 22 C-75.37364078 32.92482372 -74 45.57922767 -74 59 C-53.21 59 -32.42 59 -11 59 C-10.87089773 38.7256898 -10.87089773 38.7256898 -19 21 C-21.46991613 18.73181008 -23.92767656 17.31135757 -27 16 C-28.36125 15.38125 -28.36125 15.38125 -29.75 14.75 C-42.64097855 11.7751588 -56.95207768 12.37161514 -67 22 Z " fill="#000000" transform="translate(2058,585)"/>
<path d="M0 0 C1.10948502 -0.00960754 2.21897003 -0.01921509 3.36207581 -0.02911377 C5.18206337 -0.03548859 5.18206337 -0.03548859 7.03881836 -0.04199219 C8.28682724 -0.04769226 9.53483612 -0.05339233 10.82066345 -0.05926514 C13.47813557 -0.06874218 16.13549414 -0.07562268 18.79296875 -0.07910156 C21.49004952 -0.08344663 24.18680324 -0.09717395 26.88378906 -0.12011719 C53.79347155 -0.33259263 77.89252908 1.04337405 98.62866211 20.41113281 C111.54259301 34.07369739 116.41936323 53.22199917 116.06616211 71.67675781 C114.9519462 87.20614201 110.81171756 101.95603352 100.81616211 114.16113281 C100.25541992 114.84691406 99.69467773 115.53269531 99.11694336 116.23925781 C90.09639119 126.17947582 77.66739667 132.03340485 64.81616211 135.16113281 C63.19085571 135.67341431 63.19085571 135.67341431 61.53271484 136.19604492 C55.20946484 137.76717643 48.72451562 137.40743248 42.25366211 137.35644531 C40.85262251 137.35270872 39.45158027 137.34986481 38.05053711 137.34786987 C34.38776254 137.34028421 30.72515009 137.32068018 27.06243896 137.29846191 C23.31500439 137.27789343 19.56754328 137.26884478 15.82006836 137.25878906 C8.48535955 137.23742874 1.15078367 137.20335514 -6.18383789 137.16113281 C-6.20716621 119.44620814 -6.22481674 101.73128744 -6.23565006 84.01635075 C-6.24081316 75.79157562 -6.24785613 67.56681003 -6.25927734 59.34204102 C-6.26922376 52.17592835 -6.27569122 45.00982258 -6.27792639 37.84370321 C-6.27923357 34.04696292 -6.28231988 30.25024236 -6.28956795 26.45350838 C-6.29632749 22.88394379 -6.29845499 19.31440718 -6.29694557 15.74483681 C-6.29735425 13.80198435 -6.30274979 11.85913498 -6.30825806 9.91629028 C-6.30688339 8.77059067 -6.30550873 7.62489105 -6.30409241 6.44447327 C-6.3050142 5.44248429 -6.30593599 4.44049532 -6.30688572 3.40814304 C-6.07361667 -0.85164714 -3.7212143 0.02593007 0 0 Z M21.81616211 27.16113281 C21.81616211 54.55113281 21.81616211 81.94113281 21.81616211 110.16113281 C50.86057695 111.65200604 50.86057695 111.65200604 75.61694336 99.53222656 C84.28582611 90.2610393 86.30731761 77.79191691 86.06225586 65.52441406 C85.28660309 54.92382617 82.68607765 43.2727339 74.36694336 36.02832031 C58.54723912 25.24113254 40.47324093 27.16113281 21.81616211 27.16113281 Z " fill="#000000" transform="translate(2144.183837890625,573.8388671875)"/>
<path d="M0 0 C0.93147858 0.00359528 1.86295715 0.00719055 2.82266235 0.01089478 C3.79816544 0.01074875 4.77366852 0.01060272 5.7787323 0.01045227 C9.01987899 0.01115184 12.260969 0.01894626 15.50210571 0.02676392 C17.74270089 0.02862794 19.98329648 0.03005192 22.22389221 0.03105164 C28.13404456 0.03487804 34.04417251 0.04470936 39.95431519 0.05575562 C45.98000763 0.06596711 52.005704 0.07054869 58.03140259 0.07559204 C69.86409735 0.08633152 81.69676756 0.10392931 93.52944946 0.12442017 C93.52944946 9.03442017 93.52944946 17.94442017 93.52944946 27.12442017 C69.76944946 27.12442017 46.00944946 27.12442017 21.52944946 27.12442017 C21.52944946 36.36442017 21.52944946 45.60442017 21.52944946 55.12442017 C41.65944946 55.12442017 61.78944946 55.12442017 82.52944946 55.12442017 C82.52944946 63.37442017 82.52944946 71.62442017 82.52944946 80.12442017 C62.39944946 80.12442017 42.26944946 80.12442017 21.52944946 80.12442017 C21.52944946 90.02442017 21.52944946 99.92442017 21.52944946 110.12442017 C45.28944946 110.12442017 69.04944946 110.12442017 93.52944946 110.12442017 C93.52944946 119.03442017 93.52944946 127.94442017 93.52944946 137.12442017 C60.19944946 137.12442017 26.86944946 137.12442017 -7.47055054 137.12442017 C-7.51085357 103.05940002 -7.51085357 103.05940002 -7.51937866 88.82949829 C-7.5253218 78.98810304 -7.53232387 69.14671633 -7.54598999 59.30532837 C-7.5559364 52.13921571 -7.56240386 44.97310994 -7.56463903 37.80699056 C-7.56594621 34.01025027 -7.56903252 30.21352972 -7.57628059 26.41679573 C-7.58304014 22.84723115 -7.58516764 19.27769454 -7.58365822 15.70812416 C-7.58406689 13.7652717 -7.58946244 11.82242233 -7.5949707 9.87957764 C-7.59359604 8.73387802 -7.59222137 7.58817841 -7.59080505 6.40776062 C-7.59172685 5.40577165 -7.59264864 4.40378267 -7.59359837 3.3714304 C-7.33464238 -1.35743598 -3.95644118 0.0064533 0 0 Z " fill="#000000" transform="translate(2325.4705505371094,573.8755798339844)"/>
<path d="M0 0 C1.24963028 -0.01283524 2.49926056 -0.02567047 3.78675842 -0.03889465 C5.1669983 -0.04707265 6.54724271 -0.05451433 7.92749023 -0.0612793 C8.62371931 -0.06535482 9.31994839 -0.06943035 10.03727531 -0.07362938 C13.73855164 -0.09454583 17.43979054 -0.10881042 21.14111328 -0.11816406 C24.92316626 -0.12910355 28.70461022 -0.1633378 32.48645115 -0.20333576 C35.42519522 -0.22983035 38.36380326 -0.23788556 41.30265617 -0.24144554 C42.69338933 -0.24624559 44.08411924 -0.2576651 45.47473335 -0.27648354 C59.66823542 -0.45625735 73.49406918 1.54150117 85.17358398 10.17700195 C86.00116211 10.75836914 86.82874023 11.33973633 87.68139648 11.9387207 C90.64653832 14.60177129 92.46734561 17.5379515 94.36108398 20.98950195 C94.70333008 21.58053711 95.04557617 22.17157227 95.39819336 22.78051758 C102.25525104 34.99007465 102.45970605 49.80034203 99.17358398 63.17700195 C98.14897447 66.39939888 96.84419504 69.24029887 95.17358398 72.17700195 C94.70178711 73.01102539 94.22999023 73.84504883 93.74389648 74.7043457 C86.76850958 85.80155214 76.54571602 90.1249906 64.17358398 93.17700195 C63.46484131 93.35497314 62.75609863 93.53294434 62.02587891 93.71630859 C58.21091691 94.33248879 54.44385918 94.30014359 50.59155273 94.2746582 C49.86923462 94.27365112 49.1469165 94.27264404 48.40270996 94.27160645 C45.72215166 94.26640148 43.04161611 94.25244032 40.36108398 94.23950195 C34.35920898 94.21887695 28.35733398 94.19825195 22.17358398 94.17700195 C22.17358398 108.36700195 22.17358398 122.55700195 22.17358398 137.17700195 C12.60358398 137.17700195 3.03358398 137.17700195 -6.82641602 137.17700195 C-6.84896248 119.46207399 -6.86739486 101.7471582 -6.87822819 84.03221989 C-6.88339129 75.80744476 -6.89043425 67.58267917 -6.90185547 59.35791016 C-6.91180188 52.19179749 -6.91826934 45.02569173 -6.92050451 37.85957235 C-6.92181169 34.06283206 -6.924898 30.2661115 -6.93214607 26.46937752 C-6.93890562 22.89981294 -6.94103311 19.33027632 -6.9395237 15.76070595 C-6.93993237 13.81785349 -6.94532791 11.87500412 -6.95083618 9.93215942 C-6.94946152 8.78645981 -6.94808685 7.64076019 -6.94667053 6.46034241 C-6.94759233 5.45835343 -6.94851412 4.45636446 -6.94946384 3.42401218 C-6.70496922 -1.04077143 -3.84718474 0.03429739 0 0 Z M22.17358398 28.17700195 C22.17358398 41.04700195 22.17358398 53.91700195 22.17358398 67.17700195 C27.24733398 67.23887695 32.32108398 67.30075195 37.54858398 67.36450195 C39.12816895 67.39181396 40.70775391 67.41912598 42.33520508 67.44726562 C51.22457619 67.4995296 59.71707118 67.4956817 67.11108398 61.98950195 C71.31525177 56.25654589 73.1660027 50.27555248 72.17358398 43.17700195 C70.79385267 36.97970882 68.43992846 33.68789827 63.17358398 30.17700195 C58.39927889 28.1837274 54.03541869 27.90965803 48.93139648 27.98168945 C48.24940186 27.98370361 47.56740723 27.98571777 46.86474609 27.98779297 C44.34262261 27.99817439 41.82059579 28.02609637 39.29858398 28.05200195 C33.64733398 28.09325195 27.99608398 28.13450195 22.17358398 28.17700195 Z " fill="#000000" transform="translate(1801.826416015625,573.822998046875)"/>
<path d="M0 0 C1.21042969 -0.00128906 2.42085937 -0.00257813 3.66796875 -0.00390625 C4.94285156 -0.00003906 6.21773437 0.00382813 7.53125 0.0078125 C9.44357422 0.00201172 9.44357422 0.00201172 11.39453125 -0.00390625 C13.21017578 -0.00197266 13.21017578 -0.00197266 15.0625 0 C16.18205078 0.00112793 17.30160156 0.00225586 18.45507812 0.00341797 C21.03125 0.1328125 21.03125 0.1328125 22.03125 1.1328125 C22.12675698 2.54960161 22.15313483 3.97112491 22.15150452 5.39112854 C22.15287918 6.309646 22.15425385 7.22816345 22.15567017 8.17451477 C22.15207489 9.19014999 22.14847961 10.20578522 22.14477539 11.25219727 C22.14492142 12.31548248 22.14506744 13.3787677 22.1452179 14.47427368 C22.14451825 18.00760908 22.13672343 21.5408925 22.12890625 25.07421875 C22.12704225 27.51659618 22.12561827 29.95897399 22.12461853 32.40135193 C22.12079189 38.84415714 22.11096037 45.28693998 22.09991455 51.72973633 C22.08970356 58.29833676 22.08512158 64.8669408 22.08007812 71.43554688 C22.06933823 84.33464499 22.05245104 97.23372756 22.03125 110.1328125 C22.89346664 110.13059189 23.75568329 110.12837128 24.64402771 110.12608337 C32.75231036 110.10608255 40.86058477 110.09083944 48.96888638 110.08100033 C53.13787828 110.07577199 57.30684987 110.06867524 61.47583008 110.05737305 C65.49582686 110.04654242 69.51580405 110.04053529 73.53581429 110.03793526 C75.07287975 110.03608132 76.60994409 110.03246131 78.14700127 110.02708244 C80.29260487 110.01986966 82.43812655 110.01882166 84.58374023 110.01928711 C85.80729721 110.0170665 87.03085419 110.01484589 88.29148865 110.01255798 C91.03125 110.1328125 91.03125 110.1328125 92.03125 111.1328125 C92.13074077 112.88966924 92.1620526 114.65048583 92.1640625 116.41015625 C92.16535156 117.48072266 92.16664063 118.55128906 92.16796875 119.65429688 C92.16410156 120.78158203 92.16023438 121.90886719 92.15625 123.0703125 C92.16011719 124.19373047 92.16398437 125.31714844 92.16796875 126.47460938 C92.16667969 127.54646484 92.16539062 128.61832031 92.1640625 129.72265625 C92.16293457 130.71128662 92.16180664 131.69991699 92.16064453 132.71850586 C92.03125 135.1328125 92.03125 135.1328125 91.03125 137.1328125 C58.69125 137.1328125 26.35125 137.1328125 -6.96875 137.1328125 C-7.00905303 103.06779236 -7.00905303 103.06779236 -7.01757812 88.83789062 C-7.02352126 78.99649538 -7.03052334 69.15510866 -7.04418945 59.3137207 C-7.05413586 52.14760804 -7.06060332 44.98150227 -7.06283849 37.8153829 C-7.06414568 34.01864261 -7.06723198 30.22192205 -7.07448006 26.42518806 C-7.0812396 22.85562348 -7.0833671 19.28608687 -7.08185768 15.71651649 C-7.08226636 13.77366404 -7.0876619 11.83081466 -7.09317017 9.88796997 C-7.0917955 8.74227036 -7.09042084 7.59657074 -7.08900452 6.41615295 C-7.08992631 5.41416398 -7.0908481 4.41217501 -7.09179783 3.37982273 C-6.84438245 -1.13829748 -3.86762339 0.00389657 0 0 Z " fill="#000000" transform="translate(2487.96875,573.8671875)"/>
<path d="M0 0 C3.31609475 2.10019334 6.2282057 4.4564114 8 8 C8.49893401 12.36210879 9.00145931 16.96102884 7.0234375 20.98828125 C4.24187445 24.42683926 1.24623896 26.68552655 -3.1484375 27.30078125 C-8.15780228 27.32714633 -11.80128653 27.02697948 -16 24 C-18.77959536 20.64889905 -19.90645315 17.76173864 -20.4375 13.4375 C-19.78383666 8.30157377 -18.30778096 5.20969738 -14.5 1.6875 C-9.70326735 -1.55029454 -5.44692678 -1.49700305 0 0 Z " fill="#000000" transform="translate(434,380)"/>
<path d="M0 0 C4.71717556 2.66622967 6.45805423 5.86018078 8 11 C8.1488972 15.89499548 7.15562815 20.19148326 4 24 C-0.74338529 27.27519461 -5.39583185 27.9139414 -11 27 C-14.97599746 24.93837169 -17.65131695 22.79973723 -20 19 C-20.72146213 14.25391091 -20.5481415 9.61016565 -19 5.0625 C-13.5576076 -0.54996717 -7.51719208 -2.2134753 0 0 Z " fill="#000000" transform="translate(375,380)"/>
<path d="M0 0 C3.88924158 1.8057193 5.51165031 3.26747547 7.875 6.8125 C9.67702007 11.91822352 9.6709785 15.46234093 7.5 20.4375 C7.005 21.283125 6.51 22.12875 6 23 C5.34 23 4.68 23 4 23 C4 23.66 4 24.32 4 25 C-1.15891263 27.63209828 -4.19147103 28.58414427 -10 27 C-14.30828871 24.68015223 -17.16302763 22.59243093 -19 18 C-19.715328 13.23114667 -19.48847963 9.94206786 -17.25 5.625 C-12.05666767 -0.43388772 -7.78276223 -1.00386353 0 0 Z " fill="#000000" transform="translate(402,332)"/>
<path d="M0 0 C3.26453996 1.7769015 5.42985067 4.10759236 7.4375 7.25 C8.44224697 12.1620963 8.39767525 16.74865484 5.6953125 21.1015625 C2.75138915 24.66063401 0.743342 26.68124979 -4.05078125 27.23828125 C-9.56280683 27.41915946 -12.70056765 26.78759517 -17 23 C-20.19909526 19.26772219 -20.46624129 15.89210851 -20.28515625 11.14453125 C-19.70577496 6.7872665 -17.68085619 4.61277057 -14.5 1.75 C-9.70632738 -1.60557083 -5.49818422 -1.36985477 0 0 Z " fill="#000000" transform="translate(494,380)"/>
<path d="M0 0 C3.97599746 2.06162831 6.65131695 4.20026277 9 8 C9.73238075 12.81791647 9.60981191 17.45942255 7.8125 22 C4.90953857 25.20326778 2.83521254 26.7702482 -1.55859375 27.3203125 C-6.14642798 27.50706288 -9.2944315 27.32758537 -13.5 25.375 C-17.36202594 21.70607536 -18.81733074 18.73535794 -19.375 13.4375 C-18.76969062 7.88883069 -16.13273728 4.61614512 -12 1 C-7.93220306 -0.35593231 -4.25331741 -0.53075585 0 0 Z " fill="#000000" transform="translate(433,427)"/>
<path d="M0 0 C3.74526566 1.80327606 5.54125416 3.32717277 7.875 6.75 C9.2361704 10.68227005 9.74677599 13.88862888 9 18 C6.91422237 21.94807909 4.78887867 24.65386161 1 27 C-4.22265547 27.87570205 -8.7259785 27.61426036 -13.5 25.3125 C-17.51305401 21.60042504 -19.15716926 18.9729973 -19.375 13.5 C-19.21058999 9.53443057 -18.70389364 7.05278315 -16 4 C-10.82012038 0.16688908 -6.4231155 -1.14656707 0 0 Z " fill="#000000" transform="translate(461,477)"/>
<path d="M0 0 C3.76736342 2.73990067 5.50044647 5.5217864 6.75 10 C7.0668281 14.64423623 6.38505202 17.97077776 3.9375 21.9375 C-0.50934233 26.13023705 -4.5099786 26.56529458 -10.484375 26.4375 C-14.25668432 25.8407505 -16.29167731 24.54290779 -18.9375 21.83984375 C-22.0755203 17.44101172 -22.4645582 13.58236674 -21.75 8.3125 C-19.83594104 4.08561979 -18.04146286 2.63081096 -14.25 0 C-9.27371524 -1.65876159 -4.93773728 -1.51930378 0 0 Z " fill="#000000" transform="translate(376.25,428)"/>
<path d="M0 0 C3.70599504 2.75794979 5.44774343 5.55689727 6.6875 10 C7.0043281 14.64423623 6.32255202 17.97077776 3.875 21.9375 C-0.57610141 26.13425276 -4.56894078 26.5409111 -10.54296875 26.4609375 C-14.94094751 25.72897489 -17.5325795 23.37436891 -20.3125 20 C-22.16868207 16.28763586 -21.76059981 12.05156912 -21.3125 8 C-16.76325415 -1.2669823 -9.34309714 -2.82055763 0 0 Z " fill="#000000" transform="translate(495.3125,428)"/>
<path d="M0 0 C4.16917105 2.04801385 6.28726041 3.7295693 8 8 C8.72111965 12.52779932 8.94123485 16.98153439 6.97265625 21.203125 C3.81416708 25.36778107 0.38308186 27.19835737 -4.76171875 27.9765625 C-9.12105405 28.02220999 -12.27193884 26.52660325 -15.5078125 23.66796875 C-18.60210115 20.31729619 -19.90759623 17.5277847 -20 13 C-19.23089521 7.61626644 -17.41567817 4.39876664 -13.1953125 1.10546875 C-8.92322335 -1.04577899 -4.62275397 -0.82151351 0 0 Z " fill="#000000" transform="translate(458,332)"/>
<path d="M0 0 C4.38299083 2.19149542 7.20074724 4.40190962 9 9 C9.73650973 13.37442142 10.02973445 17.25228556 7.72265625 21.16796875 C5.01626095 24.37726391 2.94511847 26.80612381 -1.390625 27.23828125 C-5.98059778 27.35741989 -9.25780565 27.33133676 -13.5 25.4375 C-16.60233519 22.41272319 -17.81729815 20.17424181 -19 16 C-19.04680044 11.82696106 -18.62362342 7.33915708 -16 4 C-10.81677777 0.19191836 -6.41392753 -1.15660988 0 0 Z " fill="#000000" transform="translate(405,477)"/>
</svg>
